Coordinates
version=1
nRows=22
nColumns=24
inDegrees=yes

Units are S.I. units (second, meters, Newtons, ...)
Angles are in degrees.

endheader
time	pelvis_tilt	pelvis_list	pelvis_rotation	pelvis_tx	pelvis_ty	pelvis_tz	hip_flexion_r	hip_adduction_r	hip_rotation_r	knee_angle_r	ankle_angle_r	subtalar_angle_r	mtp_angle_r	hip_flexion_l	hip_adduction_l	hip_rotation_l	knee_angle_l	ankle_angle_l	subtalar_angle_l	mtp_angle_l	lumbar_extension	lumbar_bending	lumbar_rotation
      1.55500000	     18.21201588	      3.62333587	      4.55743497	     -0.53821897	      0.92551833	      0.29831202	      9.55146784	     -2.59888253	     -4.47871873	    -13.15819368	     13.97451623	      3.57727757	     39.71349531	    -34.64143415	      4.20808764	     -2.66876070	    -14.85189984	     28.93663172	     14.08246458	     20.22223725	    -36.78772830	      0.53375210	     -5.36663926
      1.56000000	     18.26411050	      3.44889903	      4.48714911	     -0.53017903	      0.92459683	      0.29876667	      9.56003716	     -2.24277096	     -3.87005639	    -14.14752909	     14.19022701	      3.22813310	     39.38367017	    -34.85365559	      3.93585404	     -3.08149746	    -15.55053469	     28.75501573	     14.47441127	     21.87381783	    -36.70279575	      0.68023055	     -5.23521856
      1.56500000	     18.20816999	      3.35049889	      4.74523996	     -0.52218099	      0.92368268	      0.29848674	      9.66109025	     -2.08239569	     -4.02526463	    -15.25224268	     14.28864914	      3.71431084	     39.48780114	    -34.85768163	      3.59894746	     -3.00465026	    -16.43269397	     28.68288088	     14.66394941	     22.25197474	    -36.50832190	      0.95958600	     -5.44161416
      1.57000000	     18.32250188	      3.34379169	      4.94353634	     -0.51447340	      0.92311543	      0.29813805	      9.62950039	     -1.99654130	     -4.25117144	    -16.36992980	     13.39212020	      3.60480017	     42.04181851	    -35.04542936	      3.39461775	     -2.71331511	    -17.23900197	     28.17767970	     14.36711708	     25.48179263	    -36.51957754	      1.14469707	     -5.56848109
      1.57500000	     18.22883907	      3.21600836	      5.05801072	     -0.50683240	      0.92243997	      0.29798230	      9.89125157	     -1.77686441	     -4.31200862	    -17.41686827	     11.44412748	      2.81377719	     44.49529963	    -34.92696616	      3.13061575	     -2.67333206	    -18.18711001	     27.85333028	     14.34702974	     26.93018495	    -36.32696555	      1.38296078	     -5.58503556
      1.58000000	     18.14153401	      3.01334581	      5.33890638	     -0.49943680	      0.92192009	      0.29735818	     10.14686963	     -1.57219836	     -4.57791221	    -18.37626956	      9.85310121	      2.51674583	     44.45126062	    -34.71537135	      2.74354883	     -2.36977717	    -19.28058803	     27.64289377	     14.28532727	     27.17262552	    -36.14582806	      1.79886373	     -5.57910760
      1.58500000	     17.93957650	      2.87229387	      5.51567727	     -0.49210521	      0.92145844	      0.29706181	     10.56245361	     -1.45854365	     -4.58947739	    -19.32460697	      9.19457197	      2.36062085	     45.11191375	    -34.31951099	      2.47987363	     -2.02472233	    -20.44210693	     27.00586165	     13.99038271	     30.58443466	    -35.87338302	      2.08102802	     -5.59534027
      1.59000000	     17.66382581	      2.69574030	      5.55071100	     -0.48465460	      0.92089118	      0.29695195	     11.12398862	     -1.30212657	     -4.47369159	    -20.46367447	      9.39800957	      2.66078817	     45.97474507	    -33.83812798	      2.29034957	     -1.78058966	    -21.63496072	     26.48256813	     13.46924410	     31.67744674	    -35.50492705	      2.31219648	     -5.40200712
      1.59500000	     17.55058019	      2.46742706	      5.57428381	     -0.47707919	      0.92072158	      0.29673494	     11.43277817	     -1.10057807	     -4.54414925	    -21.54782078	      9.53626268	      3.09271878	     47.34682950	    -33.44800278	      2.01982504	     -1.75347667	    -22.95425074	     25.68154440	     13.19035748	     34.86224857	    -35.28643327	      2.61371122	     -5.21422845
      1.60000000	     17.32146791	      2.38367637	      5.51263109	     -0.46962835	      0.92033791	      0.29663008	     12.01319612	     -1.07378454	     -4.54628109	    -23.00338884	      9.50729373	      3.09428717	     47.56186847	    -32.91124089	      1.99267680	     -1.54131273	    -24.31493985	     24.94127106	     12.65022495	     36.37163890	    -34.98989808	      2.72192817	     -4.99877667
      1.60500000	     17.21071207	      2.18422741	      5.68090177	     -0.46200668	      0.92028038	      0.29638558	     12.29053368	     -0.91497063	     -4.68266761	    -24.23801135	      9.36217045	      2.25676416	     47.17004520	    -32.33676230	      1.65573810	     -1.47412436	    -25.94340741	     24.00903703	     12.40040479	     39.48707465	    -34.77596872	      3.05217308	     -5.01292375
      1.61000000	     17.06139065	      2.00543174	      5.64523416	     -0.45433366	      0.92008643	      0.29642635	     12.68520544	     -0.76019047	     -4.69971323	    -25.64259660	      9.73459873	      1.92092785	     46.00765775	    -31.69378072	      1.44083013	     -1.61674619	    -27.61848727	     22.94472742	     12.11728250	     42.24181021	    -34.53724866	      3.25531049	     -4.81280849
      1.61500000	     17.00708917	      1.76628642	      5.62008986	     -0.44650927	      0.92016574	      0.29638930	     12.85319771	     -0.49869631	     -4.68149012	    -26.81768204	     10.53779791	      2.04738990	     44.67756228	    -31.06903495	      1.12889994	     -1.90203285	    -29.40547982	     21.70743940	     11.91582733	     45.07197929	    -34.38787341	      3.54949192	     -4.57070281
      1.62000000	     16.95683161	      1.40132926	      5.73733779	     -0.43879960	      0.92036003	      0.29629151	     12.89009416	     -0.07533540	     -4.73022004	    -27.68873414	     11.26871610	      2.29558431	     43.56615829	    -30.28256789	      0.58614222	     -2.20069610	    -31.42032673	     20.35793742	     11.74972131	     48.09780513	    -34.21498015	      4.01464097	     -4.34197631
      1.62500000	     16.91692786	      1.04335720	      5.91480674	     -0.43128735	      0.92067058	      0.29622042	     12.87177356	      0.36004979	     -4.76984639	    -28.45646100	     11.72541663	      2.60225919	     42.33954542	    -29.38672454	     -0.00105476	     -2.43081660	    -33.56104876	     18.91852001	     11.55837043	     51.23561344	    -34.08140487	      4.49879954	     -4.23677708
      1.63000000	     16.70503558	      0.65953321	      6.00513091	     -0.42381917	      0.92074657	      0.29641167	     13.02570028	      0.87154607	     -4.63136733	    -29.15617245	     11.99200544	      2.45454355	     41.34416389	    -28.21485096	     -0.58627635	     -2.71888177	    -35.82308348	     17.31476413	     11.31901146	     53.93175961	    -33.77760667	      4.91888067	     -3.97329276
      1.63500000	     16.67797543	      0.23186411	      6.24872998	     -0.41654127	      0.92106810	      0.29625275	     12.88064158	      1.40504491	     -4.75045698	    -29.67215120	     12.45438507	      2.35830463	     39.75178903	    -27.10741112	     -1.31363550	     -2.90092155	    -38.19868641	     15.48631393	     11.12905673	     57.45619049	    -33.66957127	      5.49097118	     -3.83715962
      1.64000000	     16.33118331	     -0.28262228	      6.46464759	     -0.40949549	      0.92077027	      0.29629952	     13.10486869	      2.04838689	     -4.73709639	    -30.13457608	     12.87578996	      1.91079761	     38.81087734	    -25.51670453	     -2.05041149	     -2.94284396	    -40.78038248	     13.66558377	     10.85620377	     58.61577531	    -33.23613626	      6.10091611	     -3.68957713
      1.64500000	     15.88555916	     -0.70765812	      6.76278832	     -0.40252565	      0.92035289	      0.29609243	     13.38511117	      2.55777227	     -4.84067883	    -30.53132219	     13.25304944	      1.46422843	     37.71996120	    -23.74788546	     -2.68893160	     -2.71630560	    -43.41829487	     12.07138018	     10.60391306	     59.92215959	    -32.70117656	      6.66593101	     -3.68385458
      1.65000000	     15.47571474	     -1.24772252	      7.15579627	     -0.39570328	      0.91991561	      0.29592160	     13.55918026	      3.21790887	     -4.98710837	    -30.74226655	     13.62787728	      0.85797919	     35.74306834	    -21.96848588	     -3.45949315	     -2.37467724	    -46.06146754	     10.91172468	     10.40121293	     60.94806663	    -32.17922930	      7.37011140	     -3.68016130
      1.65500000	     14.98812844	     -1.78315665	      7.65641745	     -0.38916108	      0.91943067	      0.29554456	     13.79648668	      3.82706965	     -5.22184696	    -30.86110340	     13.84124648	      0.35994499	     35.28491705	    -19.99908297	     -4.20117500	     -1.75879707	    -48.80406479	     10.21844868	     10.27457417	     60.62133296	    -31.58426008	      8.13119787	     -3.75392311
      1.66000000	     14.23527971	     -2.30887043	      7.90120741	     -0.38258518	      0.91838704	      0.29544387	     14.41027198	      4.46160815	     -5.06910295	    -31.13526514	     14.31507725	     -0.07412512	     33.12242265	    -17.78311203	     -4.74459321	     -1.27851124	    -51.54264318	     10.03058719	      9.89843282	     54.75970468	    -30.71074754	      8.70732884	     -3.62780678
